M48
; DRILL file {KiCad 8.0.1} date 2024-03-21T17:04:58-0700
; FORMAT={-:-/ absolute / metric / decimal}
; #@! TF.CreationDate,2024-03-21T17:04:58-07:00
; #@! TF.GenerationSoftware,Kicad,Pcbnew,8.0.1
; #@! TF.FileFunction,Plated,1,2,PTH
FMAT,2
METRIC
; #@! TA.AperFunction,Plated,PTH,ComponentDrill
T1C1.000
; #@! TA.AperFunction,Plated,PTH,ComponentDrill
T2C3.200
%
G90
G05
T1
X146.78Y-211.8
X149.32Y-211.8
X151.86Y-211.8
X154.4Y-211.8
X161.78Y-211.8
X161.8Y-88.2
X164.32Y-211.8
X164.34Y-88.2
X166.86Y-211.8
X166.88Y-88.2
X169.4Y-211.8
X169.42Y-88.2
X230.58Y-211.8
X230.6Y-88.2
X233.12Y-211.8
X233.14Y-88.2
X235.66Y-211.8
X235.68Y-88.2
X238.2Y-211.8
X238.22Y-88.2
X245.6Y-88.2
X248.14Y-88.2
X250.68Y-88.2
X253.22Y-88.2
T2
X132.5Y-82.5
X132.5Y-217.5
X267.5Y-82.5
X267.5Y-217.5
T1
X195.5Y-219.75G85X195.5Y-221.25
G05
X199.0Y-213.5G85X201.0Y-213.5
G05
X199.35Y-219.5G85X200.65Y-219.5
G05
X204.5Y-219.75G85X204.5Y-221.25
G05
M30
