%TF.GenerationSoftware,KiCad,Pcbnew,8.0.1*%
%TF.CreationDate,2024-03-21T17:04:59-07:00*%
%TF.ProjectId,fan-controller,66616e2d-636f-46e7-9472-6f6c6c65722e,rev?*%
%TF.SameCoordinates,Original*%
%TF.FileFunction,Drillmap*%
%TF.FilePolarity,Positive*%
%FSLAX45Y45*%
G04 Gerber Fmt 4.5, Leading zero omitted, Abs format (unit mm)*
G04 Created by KiCad (PCBNEW 8.0.1) date 2024-03-21 17:04:59*
%MOMM*%
%LPD*%
G01*
G04 APERTURE LIST*
%ADD10C,0.050000*%
%ADD11C,0.200000*%
%ADD12C,0.100000*%
%ADD13C,0.320000*%
G04 APERTURE END LIST*
D10*
X13000000Y-7500000D02*
X27000000Y-7500000D01*
X27000000Y-7500000D02*
G75*
G02*
X27500000Y-8000000I0J-500000D01*
G01*
X27500000Y-22000000D02*
G75*
G02*
X27000000Y-22500000I-500000J0D01*
G01*
X27500000Y-8000000D02*
X27500000Y-22000000D01*
X27000000Y-22500000D02*
X13000000Y-22500000D01*
X12500000Y-22000000D02*
X12500000Y-8000000D01*
X13000000Y-22500000D02*
G75*
G02*
X12500000Y-22000000I0J500000D01*
G01*
X12500000Y-8000000D02*
G75*
G02*
X13000000Y-7500000I500000J0D01*
G01*
D11*
D12*
X14628000Y-21130000D02*
X14728000Y-21230000D01*
X14728000Y-21130000D02*
X14628000Y-21230000D01*
X14882000Y-21130000D02*
X14982000Y-21230000D01*
X14982000Y-21130000D02*
X14882000Y-21230000D01*
X15136000Y-21130000D02*
X15236000Y-21230000D01*
X15236000Y-21130000D02*
X15136000Y-21230000D01*
X15390000Y-21130000D02*
X15490000Y-21230000D01*
X15490000Y-21130000D02*
X15390000Y-21230000D01*
X16128000Y-21130000D02*
X16228000Y-21230000D01*
X16228000Y-21130000D02*
X16128000Y-21230000D01*
X16130000Y-8770000D02*
X16230000Y-8870000D01*
X16230000Y-8770000D02*
X16130000Y-8870000D01*
X16382000Y-21130000D02*
X16482000Y-21230000D01*
X16482000Y-21130000D02*
X16382000Y-21230000D01*
X16384000Y-8770000D02*
X16484000Y-8870000D01*
X16484000Y-8770000D02*
X16384000Y-8870000D01*
X16636000Y-21130000D02*
X16736000Y-21230000D01*
X16736000Y-21130000D02*
X16636000Y-21230000D01*
X16638000Y-8770000D02*
X16738000Y-8870000D01*
X16738000Y-8770000D02*
X16638000Y-8870000D01*
X16890000Y-21130000D02*
X16990000Y-21230000D01*
X16990000Y-21130000D02*
X16890000Y-21230000D01*
X16892000Y-8770000D02*
X16992000Y-8870000D01*
X16992000Y-8770000D02*
X16892000Y-8870000D01*
X19500000Y-22000000D02*
X19600000Y-22100000D01*
X19600000Y-22000000D02*
X19500000Y-22100000D01*
X19500000Y-21975000D02*
X19500000Y-22125000D01*
X19600000Y-22125000D02*
G75*
G02*
X19500000Y-22125000I-50000J0D01*
G01*
X19600000Y-22125000D02*
X19600000Y-21975000D01*
X19600000Y-21975000D02*
G75*
G03*
X19500000Y-21975000I-50000J0D01*
G01*
X19950000Y-21300000D02*
X20050000Y-21400000D01*
X20050000Y-21300000D02*
X19950000Y-21400000D01*
X19900000Y-21400000D02*
X20100000Y-21400000D01*
X20100000Y-21300000D02*
G75*
G02*
X20100000Y-21400000I0J-50000D01*
G01*
X20100000Y-21300000D02*
X19900000Y-21300000D01*
X19900000Y-21300000D02*
G75*
G03*
X19900000Y-21400000I0J-50000D01*
G01*
X19950000Y-21900000D02*
X20050000Y-22000000D01*
X20050000Y-21900000D02*
X19950000Y-22000000D01*
X19935000Y-22000000D02*
X20065000Y-22000000D01*
X20065000Y-21900000D02*
G75*
G02*
X20065000Y-22000000I0J-50000D01*
G01*
X20065000Y-21900000D02*
X19935000Y-21900000D01*
X19935000Y-21900000D02*
G75*
G03*
X19935000Y-22000000I0J-50000D01*
G01*
X20400000Y-22000000D02*
X20500000Y-22100000D01*
X20500000Y-22000000D02*
X20400000Y-22100000D01*
X20400000Y-21975000D02*
X20400000Y-22125000D01*
X20500000Y-22125000D02*
G75*
G02*
X20400000Y-22125000I-50000J0D01*
G01*
X20500000Y-22125000D02*
X20500000Y-21975000D01*
X20500000Y-21975000D02*
G75*
G03*
X20400000Y-21975000I-50000J0D01*
G01*
X23008000Y-21130000D02*
X23108000Y-21230000D01*
X23108000Y-21130000D02*
X23008000Y-21230000D01*
X23010000Y-8770000D02*
X23110000Y-8870000D01*
X23110000Y-8770000D02*
X23010000Y-8870000D01*
X23262000Y-21130000D02*
X23362000Y-21230000D01*
X23362000Y-21130000D02*
X23262000Y-21230000D01*
X23264000Y-8770000D02*
X23364000Y-8870000D01*
X23364000Y-8770000D02*
X23264000Y-8870000D01*
X23516000Y-21130000D02*
X23616000Y-21230000D01*
X23616000Y-21130000D02*
X23516000Y-21230000D01*
X23518000Y-8770000D02*
X23618000Y-8870000D01*
X23618000Y-8770000D02*
X23518000Y-8870000D01*
X23770000Y-21130000D02*
X23870000Y-21230000D01*
X23870000Y-21130000D02*
X23770000Y-21230000D01*
X23772000Y-8770000D02*
X23872000Y-8870000D01*
X23872000Y-8770000D02*
X23772000Y-8870000D01*
X24510000Y-8770000D02*
X24610000Y-8870000D01*
X24610000Y-8770000D02*
X24510000Y-8870000D01*
X24764000Y-8770000D02*
X24864000Y-8870000D01*
X24864000Y-8770000D02*
X24764000Y-8870000D01*
X25018000Y-8770000D02*
X25118000Y-8870000D01*
X25118000Y-8770000D02*
X25018000Y-8870000D01*
X25272000Y-8770000D02*
X25372000Y-8870000D01*
X25372000Y-8770000D02*
X25272000Y-8870000D01*
D13*
X13410000Y-8250000D02*
G75*
G02*
X13090000Y-8250000I-160000J0D01*
G01*
X13090000Y-8250000D02*
G75*
G02*
X13410000Y-8250000I160000J0D01*
G01*
X13410000Y-21750000D02*
G75*
G02*
X13090000Y-21750000I-160000J0D01*
G01*
X13090000Y-21750000D02*
G75*
G02*
X13410000Y-21750000I160000J0D01*
G01*
X26910000Y-8250000D02*
G75*
G02*
X26590000Y-8250000I-160000J0D01*
G01*
X26590000Y-8250000D02*
G75*
G02*
X26910000Y-8250000I160000J0D01*
G01*
X26910000Y-21750000D02*
G75*
G02*
X26590000Y-21750000I-160000J0D01*
G01*
X26590000Y-21750000D02*
G75*
G02*
X26910000Y-21750000I160000J0D01*
G01*
D11*
X12758277Y-22813984D02*
X12758277Y-22613984D01*
X12758277Y-22613984D02*
X12805896Y-22613984D01*
X12805896Y-22613984D02*
X12834467Y-22623508D01*
X12834467Y-22623508D02*
X12853515Y-22642555D01*
X12853515Y-22642555D02*
X12863039Y-22661603D01*
X12863039Y-22661603D02*
X12872562Y-22699698D01*
X12872562Y-22699698D02*
X12872562Y-22728269D01*
X12872562Y-22728269D02*
X12863039Y-22766365D01*
X12863039Y-22766365D02*
X12853515Y-22785412D01*
X12853515Y-22785412D02*
X12834467Y-22804460D01*
X12834467Y-22804460D02*
X12805896Y-22813984D01*
X12805896Y-22813984D02*
X12758277Y-22813984D01*
X12958277Y-22813984D02*
X12958277Y-22680650D01*
X12958277Y-22718746D02*
X12967801Y-22699698D01*
X12967801Y-22699698D02*
X12977324Y-22690174D01*
X12977324Y-22690174D02*
X12996372Y-22680650D01*
X12996372Y-22680650D02*
X13015420Y-22680650D01*
X13082086Y-22813984D02*
X13082086Y-22680650D01*
X13082086Y-22613984D02*
X13072562Y-22623508D01*
X13072562Y-22623508D02*
X13082086Y-22633031D01*
X13082086Y-22633031D02*
X13091610Y-22623508D01*
X13091610Y-22623508D02*
X13082086Y-22613984D01*
X13082086Y-22613984D02*
X13082086Y-22633031D01*
X13205896Y-22813984D02*
X13186848Y-22804460D01*
X13186848Y-22804460D02*
X13177324Y-22785412D01*
X13177324Y-22785412D02*
X13177324Y-22613984D01*
X13310658Y-22813984D02*
X13291610Y-22804460D01*
X13291610Y-22804460D02*
X13282086Y-22785412D01*
X13282086Y-22785412D02*
X13282086Y-22613984D01*
X13539229Y-22813984D02*
X13539229Y-22613984D01*
X13539229Y-22613984D02*
X13605896Y-22756841D01*
X13605896Y-22756841D02*
X13672562Y-22613984D01*
X13672562Y-22613984D02*
X13672562Y-22813984D01*
X13853515Y-22813984D02*
X13853515Y-22709222D01*
X13853515Y-22709222D02*
X13843991Y-22690174D01*
X13843991Y-22690174D02*
X13824943Y-22680650D01*
X13824943Y-22680650D02*
X13786848Y-22680650D01*
X13786848Y-22680650D02*
X13767801Y-22690174D01*
X13853515Y-22804460D02*
X13834467Y-22813984D01*
X13834467Y-22813984D02*
X13786848Y-22813984D01*
X13786848Y-22813984D02*
X13767801Y-22804460D01*
X13767801Y-22804460D02*
X13758277Y-22785412D01*
X13758277Y-22785412D02*
X13758277Y-22766365D01*
X13758277Y-22766365D02*
X13767801Y-22747317D01*
X13767801Y-22747317D02*
X13786848Y-22737793D01*
X13786848Y-22737793D02*
X13834467Y-22737793D01*
X13834467Y-22737793D02*
X13853515Y-22728269D01*
X13948753Y-22680650D02*
X13948753Y-22880650D01*
X13948753Y-22690174D02*
X13967801Y-22680650D01*
X13967801Y-22680650D02*
X14005896Y-22680650D01*
X14005896Y-22680650D02*
X14024943Y-22690174D01*
X14024943Y-22690174D02*
X14034467Y-22699698D01*
X14034467Y-22699698D02*
X14043991Y-22718746D01*
X14043991Y-22718746D02*
X14043991Y-22775888D01*
X14043991Y-22775888D02*
X14034467Y-22794936D01*
X14034467Y-22794936D02*
X14024943Y-22804460D01*
X14024943Y-22804460D02*
X14005896Y-22813984D01*
X14005896Y-22813984D02*
X13967801Y-22813984D01*
X13967801Y-22813984D02*
X13948753Y-22804460D01*
X14129705Y-22794936D02*
X14139229Y-22804460D01*
X14139229Y-22804460D02*
X14129705Y-22813984D01*
X14129705Y-22813984D02*
X14120182Y-22804460D01*
X14120182Y-22804460D02*
X14129705Y-22794936D01*
X14129705Y-22794936D02*
X14129705Y-22813984D01*
X14129705Y-22690174D02*
X14139229Y-22699698D01*
X14139229Y-22699698D02*
X14129705Y-22709222D01*
X14129705Y-22709222D02*
X14120182Y-22699698D01*
X14120182Y-22699698D02*
X14129705Y-22690174D01*
X14129705Y-22690174D02*
X14129705Y-22709222D01*
D12*
X12397500Y-23092500D02*
X12497500Y-23192500D01*
X12497500Y-23092500D02*
X12397500Y-23192500D01*
D11*
X12863039Y-23233984D02*
X12748753Y-23233984D01*
X12805896Y-23233984D02*
X12805896Y-23033984D01*
X12805896Y-23033984D02*
X12786848Y-23062555D01*
X12786848Y-23062555D02*
X12767801Y-23081603D01*
X12767801Y-23081603D02*
X12748753Y-23091127D01*
X12948753Y-23214936D02*
X12958277Y-23224460D01*
X12958277Y-23224460D02*
X12948753Y-23233984D01*
X12948753Y-23233984D02*
X12939229Y-23224460D01*
X12939229Y-23224460D02*
X12948753Y-23214936D01*
X12948753Y-23214936D02*
X12948753Y-23233984D01*
X13082086Y-23033984D02*
X13101134Y-23033984D01*
X13101134Y-23033984D02*
X13120182Y-23043508D01*
X13120182Y-23043508D02*
X13129705Y-23053031D01*
X13129705Y-23053031D02*
X13139229Y-23072079D01*
X13139229Y-23072079D02*
X13148753Y-23110174D01*
X13148753Y-23110174D02*
X13148753Y-23157793D01*
X13148753Y-23157793D02*
X13139229Y-23195888D01*
X13139229Y-23195888D02*
X13129705Y-23214936D01*
X13129705Y-23214936D02*
X13120182Y-23224460D01*
X13120182Y-23224460D02*
X13101134Y-23233984D01*
X13101134Y-23233984D02*
X13082086Y-23233984D01*
X13082086Y-23233984D02*
X13063039Y-23224460D01*
X13063039Y-23224460D02*
X13053515Y-23214936D01*
X13053515Y-23214936D02*
X13043991Y-23195888D01*
X13043991Y-23195888D02*
X13034467Y-23157793D01*
X13034467Y-23157793D02*
X13034467Y-23110174D01*
X13034467Y-23110174D02*
X13043991Y-23072079D01*
X13043991Y-23072079D02*
X13053515Y-23053031D01*
X13053515Y-23053031D02*
X13063039Y-23043508D01*
X13063039Y-23043508D02*
X13082086Y-23033984D01*
X13272562Y-23033984D02*
X13291610Y-23033984D01*
X13291610Y-23033984D02*
X13310658Y-23043508D01*
X13310658Y-23043508D02*
X13320182Y-23053031D01*
X13320182Y-23053031D02*
X13329705Y-23072079D01*
X13329705Y-23072079D02*
X13339229Y-23110174D01*
X13339229Y-23110174D02*
X13339229Y-23157793D01*
X13339229Y-23157793D02*
X13329705Y-23195888D01*
X13329705Y-23195888D02*
X13320182Y-23214936D01*
X13320182Y-23214936D02*
X13310658Y-23224460D01*
X13310658Y-23224460D02*
X13291610Y-23233984D01*
X13291610Y-23233984D02*
X13272562Y-23233984D01*
X13272562Y-23233984D02*
X13253515Y-23224460D01*
X13253515Y-23224460D02*
X13243991Y-23214936D01*
X13243991Y-23214936D02*
X13234467Y-23195888D01*
X13234467Y-23195888D02*
X13224943Y-23157793D01*
X13224943Y-23157793D02*
X13224943Y-23110174D01*
X13224943Y-23110174D02*
X13234467Y-23072079D01*
X13234467Y-23072079D02*
X13243991Y-23053031D01*
X13243991Y-23053031D02*
X13253515Y-23043508D01*
X13253515Y-23043508D02*
X13272562Y-23033984D01*
X13463039Y-23033984D02*
X13482086Y-23033984D01*
X13482086Y-23033984D02*
X13501134Y-23043508D01*
X13501134Y-23043508D02*
X13510658Y-23053031D01*
X13510658Y-23053031D02*
X13520182Y-23072079D01*
X13520182Y-23072079D02*
X13529705Y-23110174D01*
X13529705Y-23110174D02*
X13529705Y-23157793D01*
X13529705Y-23157793D02*
X13520182Y-23195888D01*
X13520182Y-23195888D02*
X13510658Y-23214936D01*
X13510658Y-23214936D02*
X13501134Y-23224460D01*
X13501134Y-23224460D02*
X13482086Y-23233984D01*
X13482086Y-23233984D02*
X13463039Y-23233984D01*
X13463039Y-23233984D02*
X13443991Y-23224460D01*
X13443991Y-23224460D02*
X13434467Y-23214936D01*
X13434467Y-23214936D02*
X13424943Y-23195888D01*
X13424943Y-23195888D02*
X13415420Y-23157793D01*
X13415420Y-23157793D02*
X13415420Y-23110174D01*
X13415420Y-23110174D02*
X13424943Y-23072079D01*
X13424943Y-23072079D02*
X13434467Y-23053031D01*
X13434467Y-23053031D02*
X13443991Y-23043508D01*
X13443991Y-23043508D02*
X13463039Y-23033984D01*
X13615420Y-23233984D02*
X13615420Y-23100650D01*
X13615420Y-23119698D02*
X13624943Y-23110174D01*
X13624943Y-23110174D02*
X13643991Y-23100650D01*
X13643991Y-23100650D02*
X13672563Y-23100650D01*
X13672563Y-23100650D02*
X13691610Y-23110174D01*
X13691610Y-23110174D02*
X13701134Y-23129222D01*
X13701134Y-23129222D02*
X13701134Y-23233984D01*
X13701134Y-23129222D02*
X13710658Y-23110174D01*
X13710658Y-23110174D02*
X13729705Y-23100650D01*
X13729705Y-23100650D02*
X13758277Y-23100650D01*
X13758277Y-23100650D02*
X13777324Y-23110174D01*
X13777324Y-23110174D02*
X13786848Y-23129222D01*
X13786848Y-23129222D02*
X13786848Y-23233984D01*
X13882086Y-23233984D02*
X13882086Y-23100650D01*
X13882086Y-23119698D02*
X13891610Y-23110174D01*
X13891610Y-23110174D02*
X13910658Y-23100650D01*
X13910658Y-23100650D02*
X13939229Y-23100650D01*
X13939229Y-23100650D02*
X13958277Y-23110174D01*
X13958277Y-23110174D02*
X13967801Y-23129222D01*
X13967801Y-23129222D02*
X13967801Y-23233984D01*
X13967801Y-23129222D02*
X13977324Y-23110174D01*
X13977324Y-23110174D02*
X13996372Y-23100650D01*
X13996372Y-23100650D02*
X14024943Y-23100650D01*
X14024943Y-23100650D02*
X14043991Y-23110174D01*
X14043991Y-23110174D02*
X14053515Y-23129222D01*
X14053515Y-23129222D02*
X14053515Y-23233984D01*
X14443991Y-23024460D02*
X14272563Y-23281603D01*
X14701134Y-23033984D02*
X14720182Y-23033984D01*
X14720182Y-23033984D02*
X14739229Y-23043508D01*
X14739229Y-23043508D02*
X14748753Y-23053031D01*
X14748753Y-23053031D02*
X14758277Y-23072079D01*
X14758277Y-23072079D02*
X14767801Y-23110174D01*
X14767801Y-23110174D02*
X14767801Y-23157793D01*
X14767801Y-23157793D02*
X14758277Y-23195888D01*
X14758277Y-23195888D02*
X14748753Y-23214936D01*
X14748753Y-23214936D02*
X14739229Y-23224460D01*
X14739229Y-23224460D02*
X14720182Y-23233984D01*
X14720182Y-23233984D02*
X14701134Y-23233984D01*
X14701134Y-23233984D02*
X14682086Y-23224460D01*
X14682086Y-23224460D02*
X14672563Y-23214936D01*
X14672563Y-23214936D02*
X14663039Y-23195888D01*
X14663039Y-23195888D02*
X14653515Y-23157793D01*
X14653515Y-23157793D02*
X14653515Y-23110174D01*
X14653515Y-23110174D02*
X14663039Y-23072079D01*
X14663039Y-23072079D02*
X14672563Y-23053031D01*
X14672563Y-23053031D02*
X14682086Y-23043508D01*
X14682086Y-23043508D02*
X14701134Y-23033984D01*
X14853515Y-23214936D02*
X14863039Y-23224460D01*
X14863039Y-23224460D02*
X14853515Y-23233984D01*
X14853515Y-23233984D02*
X14843991Y-23224460D01*
X14843991Y-23224460D02*
X14853515Y-23214936D01*
X14853515Y-23214936D02*
X14853515Y-23233984D01*
X14986848Y-23033984D02*
X15005896Y-23033984D01*
X15005896Y-23033984D02*
X15024944Y-23043508D01*
X15024944Y-23043508D02*
X15034467Y-23053031D01*
X15034467Y-23053031D02*
X15043991Y-23072079D01*
X15043991Y-23072079D02*
X15053515Y-23110174D01*
X15053515Y-23110174D02*
X15053515Y-23157793D01*
X15053515Y-23157793D02*
X15043991Y-23195888D01*
X15043991Y-23195888D02*
X15034467Y-23214936D01*
X15034467Y-23214936D02*
X15024944Y-23224460D01*
X15024944Y-23224460D02*
X15005896Y-23233984D01*
X15005896Y-23233984D02*
X14986848Y-23233984D01*
X14986848Y-23233984D02*
X14967801Y-23224460D01*
X14967801Y-23224460D02*
X14958277Y-23214936D01*
X14958277Y-23214936D02*
X14948753Y-23195888D01*
X14948753Y-23195888D02*
X14939229Y-23157793D01*
X14939229Y-23157793D02*
X14939229Y-23110174D01*
X14939229Y-23110174D02*
X14948753Y-23072079D01*
X14948753Y-23072079D02*
X14958277Y-23053031D01*
X14958277Y-23053031D02*
X14967801Y-23043508D01*
X14967801Y-23043508D02*
X14986848Y-23033984D01*
X15120182Y-23033984D02*
X15243991Y-23033984D01*
X15243991Y-23033984D02*
X15177325Y-23110174D01*
X15177325Y-23110174D02*
X15205896Y-23110174D01*
X15205896Y-23110174D02*
X15224944Y-23119698D01*
X15224944Y-23119698D02*
X15234467Y-23129222D01*
X15234467Y-23129222D02*
X15243991Y-23148269D01*
X15243991Y-23148269D02*
X15243991Y-23195888D01*
X15243991Y-23195888D02*
X15234467Y-23214936D01*
X15234467Y-23214936D02*
X15224944Y-23224460D01*
X15224944Y-23224460D02*
X15205896Y-23233984D01*
X15205896Y-23233984D02*
X15148753Y-23233984D01*
X15148753Y-23233984D02*
X15129706Y-23224460D01*
X15129706Y-23224460D02*
X15120182Y-23214936D01*
X15339229Y-23233984D02*
X15377325Y-23233984D01*
X15377325Y-23233984D02*
X15396372Y-23224460D01*
X15396372Y-23224460D02*
X15405896Y-23214936D01*
X15405896Y-23214936D02*
X15424944Y-23186365D01*
X15424944Y-23186365D02*
X15434467Y-23148269D01*
X15434467Y-23148269D02*
X15434467Y-23072079D01*
X15434467Y-23072079D02*
X15424944Y-23053031D01*
X15424944Y-23053031D02*
X15415420Y-23043508D01*
X15415420Y-23043508D02*
X15396372Y-23033984D01*
X15396372Y-23033984D02*
X15358277Y-23033984D01*
X15358277Y-23033984D02*
X15339229Y-23043508D01*
X15339229Y-23043508D02*
X15329706Y-23053031D01*
X15329706Y-23053031D02*
X15320182Y-23072079D01*
X15320182Y-23072079D02*
X15320182Y-23119698D01*
X15320182Y-23119698D02*
X15329706Y-23138746D01*
X15329706Y-23138746D02*
X15339229Y-23148269D01*
X15339229Y-23148269D02*
X15358277Y-23157793D01*
X15358277Y-23157793D02*
X15396372Y-23157793D01*
X15396372Y-23157793D02*
X15415420Y-23148269D01*
X15415420Y-23148269D02*
X15424944Y-23138746D01*
X15424944Y-23138746D02*
X15434467Y-23119698D01*
X15605896Y-23100650D02*
X15605896Y-23233984D01*
X15558277Y-23024460D02*
X15510658Y-23167317D01*
X15510658Y-23167317D02*
X15634467Y-23167317D01*
X15701134Y-23033984D02*
X15701134Y-23072079D01*
X15777325Y-23033984D02*
X15777325Y-23072079D01*
X16072563Y-23310174D02*
X16063039Y-23300650D01*
X16063039Y-23300650D02*
X16043991Y-23272079D01*
X16043991Y-23272079D02*
X16034468Y-23253031D01*
X16034468Y-23253031D02*
X16024944Y-23224460D01*
X16024944Y-23224460D02*
X16015420Y-23176841D01*
X16015420Y-23176841D02*
X16015420Y-23138746D01*
X16015420Y-23138746D02*
X16024944Y-23091127D01*
X16024944Y-23091127D02*
X16034468Y-23062555D01*
X16034468Y-23062555D02*
X16043991Y-23043508D01*
X16043991Y-23043508D02*
X16063039Y-23014936D01*
X16063039Y-23014936D02*
X16072563Y-23005412D01*
X16139229Y-23053031D02*
X16148753Y-23043508D01*
X16148753Y-23043508D02*
X16167801Y-23033984D01*
X16167801Y-23033984D02*
X16215420Y-23033984D01*
X16215420Y-23033984D02*
X16234468Y-23043508D01*
X16234468Y-23043508D02*
X16243991Y-23053031D01*
X16243991Y-23053031D02*
X16253515Y-23072079D01*
X16253515Y-23072079D02*
X16253515Y-23091127D01*
X16253515Y-23091127D02*
X16243991Y-23119698D01*
X16243991Y-23119698D02*
X16129706Y-23233984D01*
X16129706Y-23233984D02*
X16253515Y-23233984D01*
X16424944Y-23100650D02*
X16424944Y-23233984D01*
X16377325Y-23024460D02*
X16329706Y-23167317D01*
X16329706Y-23167317D02*
X16453515Y-23167317D01*
X16682087Y-23233984D02*
X16682087Y-23033984D01*
X16767801Y-23233984D02*
X16767801Y-23129222D01*
X16767801Y-23129222D02*
X16758277Y-23110174D01*
X16758277Y-23110174D02*
X16739230Y-23100650D01*
X16739230Y-23100650D02*
X16710658Y-23100650D01*
X16710658Y-23100650D02*
X16691610Y-23110174D01*
X16691610Y-23110174D02*
X16682087Y-23119698D01*
X16891611Y-23233984D02*
X16872563Y-23224460D01*
X16872563Y-23224460D02*
X16863039Y-23214936D01*
X16863039Y-23214936D02*
X16853515Y-23195888D01*
X16853515Y-23195888D02*
X16853515Y-23138746D01*
X16853515Y-23138746D02*
X16863039Y-23119698D01*
X16863039Y-23119698D02*
X16872563Y-23110174D01*
X16872563Y-23110174D02*
X16891611Y-23100650D01*
X16891611Y-23100650D02*
X16920182Y-23100650D01*
X16920182Y-23100650D02*
X16939230Y-23110174D01*
X16939230Y-23110174D02*
X16948753Y-23119698D01*
X16948753Y-23119698D02*
X16958277Y-23138746D01*
X16958277Y-23138746D02*
X16958277Y-23195888D01*
X16958277Y-23195888D02*
X16948753Y-23214936D01*
X16948753Y-23214936D02*
X16939230Y-23224460D01*
X16939230Y-23224460D02*
X16920182Y-23233984D01*
X16920182Y-23233984D02*
X16891611Y-23233984D01*
X17072563Y-23233984D02*
X17053515Y-23224460D01*
X17053515Y-23224460D02*
X17043992Y-23205412D01*
X17043992Y-23205412D02*
X17043992Y-23033984D01*
X17224944Y-23224460D02*
X17205896Y-23233984D01*
X17205896Y-23233984D02*
X17167801Y-23233984D01*
X17167801Y-23233984D02*
X17148753Y-23224460D01*
X17148753Y-23224460D02*
X17139230Y-23205412D01*
X17139230Y-23205412D02*
X17139230Y-23129222D01*
X17139230Y-23129222D02*
X17148753Y-23110174D01*
X17148753Y-23110174D02*
X17167801Y-23100650D01*
X17167801Y-23100650D02*
X17205896Y-23100650D01*
X17205896Y-23100650D02*
X17224944Y-23110174D01*
X17224944Y-23110174D02*
X17234468Y-23129222D01*
X17234468Y-23129222D02*
X17234468Y-23148269D01*
X17234468Y-23148269D02*
X17139230Y-23167317D01*
X17310658Y-23224460D02*
X17329706Y-23233984D01*
X17329706Y-23233984D02*
X17367801Y-23233984D01*
X17367801Y-23233984D02*
X17386849Y-23224460D01*
X17386849Y-23224460D02*
X17396373Y-23205412D01*
X17396373Y-23205412D02*
X17396373Y-23195888D01*
X17396373Y-23195888D02*
X17386849Y-23176841D01*
X17386849Y-23176841D02*
X17367801Y-23167317D01*
X17367801Y-23167317D02*
X17339230Y-23167317D01*
X17339230Y-23167317D02*
X17320182Y-23157793D01*
X17320182Y-23157793D02*
X17310658Y-23138746D01*
X17310658Y-23138746D02*
X17310658Y-23129222D01*
X17310658Y-23129222D02*
X17320182Y-23110174D01*
X17320182Y-23110174D02*
X17339230Y-23100650D01*
X17339230Y-23100650D02*
X17367801Y-23100650D01*
X17367801Y-23100650D02*
X17386849Y-23110174D01*
X17634468Y-23157793D02*
X17786849Y-23157793D01*
X17710658Y-23233984D02*
X17710658Y-23081603D01*
X18120182Y-23100650D02*
X18120182Y-23233984D01*
X18072563Y-23024460D02*
X18024944Y-23167317D01*
X18024944Y-23167317D02*
X18148754Y-23167317D01*
X18367801Y-23224460D02*
X18386849Y-23233984D01*
X18386849Y-23233984D02*
X18424944Y-23233984D01*
X18424944Y-23233984D02*
X18443992Y-23224460D01*
X18443992Y-23224460D02*
X18453516Y-23205412D01*
X18453516Y-23205412D02*
X18453516Y-23195888D01*
X18453516Y-23195888D02*
X18443992Y-23176841D01*
X18443992Y-23176841D02*
X18424944Y-23167317D01*
X18424944Y-23167317D02*
X18396373Y-23167317D01*
X18396373Y-23167317D02*
X18377325Y-23157793D01*
X18377325Y-23157793D02*
X18367801Y-23138746D01*
X18367801Y-23138746D02*
X18367801Y-23129222D01*
X18367801Y-23129222D02*
X18377325Y-23110174D01*
X18377325Y-23110174D02*
X18396373Y-23100650D01*
X18396373Y-23100650D02*
X18424944Y-23100650D01*
X18424944Y-23100650D02*
X18443992Y-23110174D01*
X18567801Y-23233984D02*
X18548754Y-23224460D01*
X18548754Y-23224460D02*
X18539230Y-23205412D01*
X18539230Y-23205412D02*
X18539230Y-23033984D01*
X18672563Y-23233984D02*
X18653516Y-23224460D01*
X18653516Y-23224460D02*
X18643992Y-23214936D01*
X18643992Y-23214936D02*
X18634468Y-23195888D01*
X18634468Y-23195888D02*
X18634468Y-23138746D01*
X18634468Y-23138746D02*
X18643992Y-23119698D01*
X18643992Y-23119698D02*
X18653516Y-23110174D01*
X18653516Y-23110174D02*
X18672563Y-23100650D01*
X18672563Y-23100650D02*
X18701135Y-23100650D01*
X18701135Y-23100650D02*
X18720182Y-23110174D01*
X18720182Y-23110174D02*
X18729706Y-23119698D01*
X18729706Y-23119698D02*
X18739230Y-23138746D01*
X18739230Y-23138746D02*
X18739230Y-23195888D01*
X18739230Y-23195888D02*
X18729706Y-23214936D01*
X18729706Y-23214936D02*
X18720182Y-23224460D01*
X18720182Y-23224460D02*
X18701135Y-23233984D01*
X18701135Y-23233984D02*
X18672563Y-23233984D01*
X18796373Y-23100650D02*
X18872563Y-23100650D01*
X18824944Y-23033984D02*
X18824944Y-23205412D01*
X18824944Y-23205412D02*
X18834468Y-23224460D01*
X18834468Y-23224460D02*
X18853516Y-23233984D01*
X18853516Y-23233984D02*
X18872563Y-23233984D01*
X18929706Y-23224460D02*
X18948754Y-23233984D01*
X18948754Y-23233984D02*
X18986849Y-23233984D01*
X18986849Y-23233984D02*
X19005897Y-23224460D01*
X19005897Y-23224460D02*
X19015420Y-23205412D01*
X19015420Y-23205412D02*
X19015420Y-23195888D01*
X19015420Y-23195888D02*
X19005897Y-23176841D01*
X19005897Y-23176841D02*
X18986849Y-23167317D01*
X18986849Y-23167317D02*
X18958277Y-23167317D01*
X18958277Y-23167317D02*
X18939230Y-23157793D01*
X18939230Y-23157793D02*
X18929706Y-23138746D01*
X18929706Y-23138746D02*
X18929706Y-23129222D01*
X18929706Y-23129222D02*
X18939230Y-23110174D01*
X18939230Y-23110174D02*
X18958277Y-23100650D01*
X18958277Y-23100650D02*
X18986849Y-23100650D01*
X18986849Y-23100650D02*
X19005897Y-23110174D01*
X19082087Y-23310174D02*
X19091611Y-23300650D01*
X19091611Y-23300650D02*
X19110658Y-23272079D01*
X19110658Y-23272079D02*
X19120182Y-23253031D01*
X19120182Y-23253031D02*
X19129706Y-23224460D01*
X19129706Y-23224460D02*
X19139230Y-23176841D01*
X19139230Y-23176841D02*
X19139230Y-23138746D01*
X19139230Y-23138746D02*
X19129706Y-23091127D01*
X19129706Y-23091127D02*
X19120182Y-23062555D01*
X19120182Y-23062555D02*
X19110658Y-23043508D01*
X19110658Y-23043508D02*
X19091611Y-23014936D01*
X19091611Y-23014936D02*
X19082087Y-23005412D01*
X12497500Y-23406500D02*
G75*
G02*
X12297500Y-23406500I-100000J0D01*
G01*
X12297500Y-23406500D02*
G75*
G02*
X12497500Y-23406500I100000J0D01*
G01*
X12739229Y-23297984D02*
X12863039Y-23297984D01*
X12863039Y-23297984D02*
X12796372Y-23374174D01*
X12796372Y-23374174D02*
X12824943Y-23374174D01*
X12824943Y-23374174D02*
X12843991Y-23383698D01*
X12843991Y-23383698D02*
X12853515Y-23393222D01*
X12853515Y-23393222D02*
X12863039Y-23412269D01*
X12863039Y-23412269D02*
X12863039Y-23459888D01*
X12863039Y-23459888D02*
X12853515Y-23478936D01*
X12853515Y-23478936D02*
X12843991Y-23488460D01*
X12843991Y-23488460D02*
X12824943Y-23497984D01*
X12824943Y-23497984D02*
X12767801Y-23497984D01*
X12767801Y-23497984D02*
X12748753Y-23488460D01*
X12748753Y-23488460D02*
X12739229Y-23478936D01*
X12948753Y-23478936D02*
X12958277Y-23488460D01*
X12958277Y-23488460D02*
X12948753Y-23497984D01*
X12948753Y-23497984D02*
X12939229Y-23488460D01*
X12939229Y-23488460D02*
X12948753Y-23478936D01*
X12948753Y-23478936D02*
X12948753Y-23497984D01*
X13034467Y-23317031D02*
X13043991Y-23307508D01*
X13043991Y-23307508D02*
X13063039Y-23297984D01*
X13063039Y-23297984D02*
X13110658Y-23297984D01*
X13110658Y-23297984D02*
X13129705Y-23307508D01*
X13129705Y-23307508D02*
X13139229Y-23317031D01*
X13139229Y-23317031D02*
X13148753Y-23336079D01*
X13148753Y-23336079D02*
X13148753Y-23355127D01*
X13148753Y-23355127D02*
X13139229Y-23383698D01*
X13139229Y-23383698D02*
X13024943Y-23497984D01*
X13024943Y-23497984D02*
X13148753Y-23497984D01*
X13272562Y-23297984D02*
X13291610Y-23297984D01*
X13291610Y-23297984D02*
X13310658Y-23307508D01*
X13310658Y-23307508D02*
X13320182Y-23317031D01*
X13320182Y-23317031D02*
X13329705Y-23336079D01*
X13329705Y-23336079D02*
X13339229Y-23374174D01*
X13339229Y-23374174D02*
X13339229Y-23421793D01*
X13339229Y-23421793D02*
X13329705Y-23459888D01*
X13329705Y-23459888D02*
X13320182Y-23478936D01*
X13320182Y-23478936D02*
X13310658Y-23488460D01*
X13310658Y-23488460D02*
X13291610Y-23497984D01*
X13291610Y-23497984D02*
X13272562Y-23497984D01*
X13272562Y-23497984D02*
X13253515Y-23488460D01*
X13253515Y-23488460D02*
X13243991Y-23478936D01*
X13243991Y-23478936D02*
X13234467Y-23459888D01*
X13234467Y-23459888D02*
X13224943Y-23421793D01*
X13224943Y-23421793D02*
X13224943Y-23374174D01*
X13224943Y-23374174D02*
X13234467Y-23336079D01*
X13234467Y-23336079D02*
X13243991Y-23317031D01*
X13243991Y-23317031D02*
X13253515Y-23307508D01*
X13253515Y-23307508D02*
X13272562Y-23297984D01*
X13463039Y-23297984D02*
X13482086Y-23297984D01*
X13482086Y-23297984D02*
X13501134Y-23307508D01*
X13501134Y-23307508D02*
X13510658Y-23317031D01*
X13510658Y-23317031D02*
X13520182Y-23336079D01*
X13520182Y-23336079D02*
X13529705Y-23374174D01*
X13529705Y-23374174D02*
X13529705Y-23421793D01*
X13529705Y-23421793D02*
X13520182Y-23459888D01*
X13520182Y-23459888D02*
X13510658Y-23478936D01*
X13510658Y-23478936D02*
X13501134Y-23488460D01*
X13501134Y-23488460D02*
X13482086Y-23497984D01*
X13482086Y-23497984D02*
X13463039Y-23497984D01*
X13463039Y-23497984D02*
X13443991Y-23488460D01*
X13443991Y-23488460D02*
X13434467Y-23478936D01*
X13434467Y-23478936D02*
X13424943Y-23459888D01*
X13424943Y-23459888D02*
X13415420Y-23421793D01*
X13415420Y-23421793D02*
X13415420Y-23374174D01*
X13415420Y-23374174D02*
X13424943Y-23336079D01*
X13424943Y-23336079D02*
X13434467Y-23317031D01*
X13434467Y-23317031D02*
X13443991Y-23307508D01*
X13443991Y-23307508D02*
X13463039Y-23297984D01*
X13615420Y-23497984D02*
X13615420Y-23364650D01*
X13615420Y-23383698D02*
X13624943Y-23374174D01*
X13624943Y-23374174D02*
X13643991Y-23364650D01*
X13643991Y-23364650D02*
X13672563Y-23364650D01*
X13672563Y-23364650D02*
X13691610Y-23374174D01*
X13691610Y-23374174D02*
X13701134Y-23393222D01*
X13701134Y-23393222D02*
X13701134Y-23497984D01*
X13701134Y-23393222D02*
X13710658Y-23374174D01*
X13710658Y-23374174D02*
X13729705Y-23364650D01*
X13729705Y-23364650D02*
X13758277Y-23364650D01*
X13758277Y-23364650D02*
X13777324Y-23374174D01*
X13777324Y-23374174D02*
X13786848Y-23393222D01*
X13786848Y-23393222D02*
X13786848Y-23497984D01*
X13882086Y-23497984D02*
X13882086Y-23364650D01*
X13882086Y-23383698D02*
X13891610Y-23374174D01*
X13891610Y-23374174D02*
X13910658Y-23364650D01*
X13910658Y-23364650D02*
X13939229Y-23364650D01*
X13939229Y-23364650D02*
X13958277Y-23374174D01*
X13958277Y-23374174D02*
X13967801Y-23393222D01*
X13967801Y-23393222D02*
X13967801Y-23497984D01*
X13967801Y-23393222D02*
X13977324Y-23374174D01*
X13977324Y-23374174D02*
X13996372Y-23364650D01*
X13996372Y-23364650D02*
X14024943Y-23364650D01*
X14024943Y-23364650D02*
X14043991Y-23374174D01*
X14043991Y-23374174D02*
X14053515Y-23393222D01*
X14053515Y-23393222D02*
X14053515Y-23497984D01*
X14443991Y-23288460D02*
X14272563Y-23545603D01*
X14701134Y-23297984D02*
X14720182Y-23297984D01*
X14720182Y-23297984D02*
X14739229Y-23307508D01*
X14739229Y-23307508D02*
X14748753Y-23317031D01*
X14748753Y-23317031D02*
X14758277Y-23336079D01*
X14758277Y-23336079D02*
X14767801Y-23374174D01*
X14767801Y-23374174D02*
X14767801Y-23421793D01*
X14767801Y-23421793D02*
X14758277Y-23459888D01*
X14758277Y-23459888D02*
X14748753Y-23478936D01*
X14748753Y-23478936D02*
X14739229Y-23488460D01*
X14739229Y-23488460D02*
X14720182Y-23497984D01*
X14720182Y-23497984D02*
X14701134Y-23497984D01*
X14701134Y-23497984D02*
X14682086Y-23488460D01*
X14682086Y-23488460D02*
X14672563Y-23478936D01*
X14672563Y-23478936D02*
X14663039Y-23459888D01*
X14663039Y-23459888D02*
X14653515Y-23421793D01*
X14653515Y-23421793D02*
X14653515Y-23374174D01*
X14653515Y-23374174D02*
X14663039Y-23336079D01*
X14663039Y-23336079D02*
X14672563Y-23317031D01*
X14672563Y-23317031D02*
X14682086Y-23307508D01*
X14682086Y-23307508D02*
X14701134Y-23297984D01*
X14853515Y-23478936D02*
X14863039Y-23488460D01*
X14863039Y-23488460D02*
X14853515Y-23497984D01*
X14853515Y-23497984D02*
X14843991Y-23488460D01*
X14843991Y-23488460D02*
X14853515Y-23478936D01*
X14853515Y-23478936D02*
X14853515Y-23497984D01*
X15053515Y-23497984D02*
X14939229Y-23497984D01*
X14996372Y-23497984D02*
X14996372Y-23297984D01*
X14996372Y-23297984D02*
X14977325Y-23326555D01*
X14977325Y-23326555D02*
X14958277Y-23345603D01*
X14958277Y-23345603D02*
X14939229Y-23355127D01*
X15129706Y-23317031D02*
X15139229Y-23307508D01*
X15139229Y-23307508D02*
X15158277Y-23297984D01*
X15158277Y-23297984D02*
X15205896Y-23297984D01*
X15205896Y-23297984D02*
X15224944Y-23307508D01*
X15224944Y-23307508D02*
X15234467Y-23317031D01*
X15234467Y-23317031D02*
X15243991Y-23336079D01*
X15243991Y-23336079D02*
X15243991Y-23355127D01*
X15243991Y-23355127D02*
X15234467Y-23383698D01*
X15234467Y-23383698D02*
X15120182Y-23497984D01*
X15120182Y-23497984D02*
X15243991Y-23497984D01*
X15415420Y-23297984D02*
X15377325Y-23297984D01*
X15377325Y-23297984D02*
X15358277Y-23307508D01*
X15358277Y-23307508D02*
X15348753Y-23317031D01*
X15348753Y-23317031D02*
X15329706Y-23345603D01*
X15329706Y-23345603D02*
X15320182Y-23383698D01*
X15320182Y-23383698D02*
X15320182Y-23459888D01*
X15320182Y-23459888D02*
X15329706Y-23478936D01*
X15329706Y-23478936D02*
X15339229Y-23488460D01*
X15339229Y-23488460D02*
X15358277Y-23497984D01*
X15358277Y-23497984D02*
X15396372Y-23497984D01*
X15396372Y-23497984D02*
X15415420Y-23488460D01*
X15415420Y-23488460D02*
X15424944Y-23478936D01*
X15424944Y-23478936D02*
X15434467Y-23459888D01*
X15434467Y-23459888D02*
X15434467Y-23412269D01*
X15434467Y-23412269D02*
X15424944Y-23393222D01*
X15424944Y-23393222D02*
X15415420Y-23383698D01*
X15415420Y-23383698D02*
X15396372Y-23374174D01*
X15396372Y-23374174D02*
X15358277Y-23374174D01*
X15358277Y-23374174D02*
X15339229Y-23383698D01*
X15339229Y-23383698D02*
X15329706Y-23393222D01*
X15329706Y-23393222D02*
X15320182Y-23412269D01*
X15558277Y-23297984D02*
X15577325Y-23297984D01*
X15577325Y-23297984D02*
X15596372Y-23307508D01*
X15596372Y-23307508D02*
X15605896Y-23317031D01*
X15605896Y-23317031D02*
X15615420Y-23336079D01*
X15615420Y-23336079D02*
X15624944Y-23374174D01*
X15624944Y-23374174D02*
X15624944Y-23421793D01*
X15624944Y-23421793D02*
X15615420Y-23459888D01*
X15615420Y-23459888D02*
X15605896Y-23478936D01*
X15605896Y-23478936D02*
X15596372Y-23488460D01*
X15596372Y-23488460D02*
X15577325Y-23497984D01*
X15577325Y-23497984D02*
X15558277Y-23497984D01*
X15558277Y-23497984D02*
X15539229Y-23488460D01*
X15539229Y-23488460D02*
X15529706Y-23478936D01*
X15529706Y-23478936D02*
X15520182Y-23459888D01*
X15520182Y-23459888D02*
X15510658Y-23421793D01*
X15510658Y-23421793D02*
X15510658Y-23374174D01*
X15510658Y-23374174D02*
X15520182Y-23336079D01*
X15520182Y-23336079D02*
X15529706Y-23317031D01*
X15529706Y-23317031D02*
X15539229Y-23307508D01*
X15539229Y-23307508D02*
X15558277Y-23297984D01*
X15701134Y-23297984D02*
X15701134Y-23336079D01*
X15777325Y-23297984D02*
X15777325Y-23336079D01*
X16072563Y-23574174D02*
X16063039Y-23564650D01*
X16063039Y-23564650D02*
X16043991Y-23536079D01*
X16043991Y-23536079D02*
X16034468Y-23517031D01*
X16034468Y-23517031D02*
X16024944Y-23488460D01*
X16024944Y-23488460D02*
X16015420Y-23440841D01*
X16015420Y-23440841D02*
X16015420Y-23402746D01*
X16015420Y-23402746D02*
X16024944Y-23355127D01*
X16024944Y-23355127D02*
X16034468Y-23326555D01*
X16034468Y-23326555D02*
X16043991Y-23307508D01*
X16043991Y-23307508D02*
X16063039Y-23278936D01*
X16063039Y-23278936D02*
X16072563Y-23269412D01*
X16234468Y-23364650D02*
X16234468Y-23497984D01*
X16186848Y-23288460D02*
X16139229Y-23431317D01*
X16139229Y-23431317D02*
X16263039Y-23431317D01*
X16491610Y-23497984D02*
X16491610Y-23297984D01*
X16577325Y-23497984D02*
X16577325Y-23393222D01*
X16577325Y-23393222D02*
X16567801Y-23374174D01*
X16567801Y-23374174D02*
X16548753Y-23364650D01*
X16548753Y-23364650D02*
X16520182Y-23364650D01*
X16520182Y-23364650D02*
X16501134Y-23374174D01*
X16501134Y-23374174D02*
X16491610Y-23383698D01*
X16701134Y-23497984D02*
X16682087Y-23488460D01*
X16682087Y-23488460D02*
X16672563Y-23478936D01*
X16672563Y-23478936D02*
X16663039Y-23459888D01*
X16663039Y-23459888D02*
X16663039Y-23402746D01*
X16663039Y-23402746D02*
X16672563Y-23383698D01*
X16672563Y-23383698D02*
X16682087Y-23374174D01*
X16682087Y-23374174D02*
X16701134Y-23364650D01*
X16701134Y-23364650D02*
X16729706Y-23364650D01*
X16729706Y-23364650D02*
X16748753Y-23374174D01*
X16748753Y-23374174D02*
X16758277Y-23383698D01*
X16758277Y-23383698D02*
X16767801Y-23402746D01*
X16767801Y-23402746D02*
X16767801Y-23459888D01*
X16767801Y-23459888D02*
X16758277Y-23478936D01*
X16758277Y-23478936D02*
X16748753Y-23488460D01*
X16748753Y-23488460D02*
X16729706Y-23497984D01*
X16729706Y-23497984D02*
X16701134Y-23497984D01*
X16882087Y-23497984D02*
X16863039Y-23488460D01*
X16863039Y-23488460D02*
X16853515Y-23469412D01*
X16853515Y-23469412D02*
X16853515Y-23297984D01*
X17034468Y-23488460D02*
X17015420Y-23497984D01*
X17015420Y-23497984D02*
X16977325Y-23497984D01*
X16977325Y-23497984D02*
X16958277Y-23488460D01*
X16958277Y-23488460D02*
X16948753Y-23469412D01*
X16948753Y-23469412D02*
X16948753Y-23393222D01*
X16948753Y-23393222D02*
X16958277Y-23374174D01*
X16958277Y-23374174D02*
X16977325Y-23364650D01*
X16977325Y-23364650D02*
X17015420Y-23364650D01*
X17015420Y-23364650D02*
X17034468Y-23374174D01*
X17034468Y-23374174D02*
X17043992Y-23393222D01*
X17043992Y-23393222D02*
X17043992Y-23412269D01*
X17043992Y-23412269D02*
X16948753Y-23431317D01*
X17120182Y-23488460D02*
X17139230Y-23497984D01*
X17139230Y-23497984D02*
X17177325Y-23497984D01*
X17177325Y-23497984D02*
X17196373Y-23488460D01*
X17196373Y-23488460D02*
X17205896Y-23469412D01*
X17205896Y-23469412D02*
X17205896Y-23459888D01*
X17205896Y-23459888D02*
X17196373Y-23440841D01*
X17196373Y-23440841D02*
X17177325Y-23431317D01*
X17177325Y-23431317D02*
X17148753Y-23431317D01*
X17148753Y-23431317D02*
X17129706Y-23421793D01*
X17129706Y-23421793D02*
X17120182Y-23402746D01*
X17120182Y-23402746D02*
X17120182Y-23393222D01*
X17120182Y-23393222D02*
X17129706Y-23374174D01*
X17129706Y-23374174D02*
X17148753Y-23364650D01*
X17148753Y-23364650D02*
X17177325Y-23364650D01*
X17177325Y-23364650D02*
X17196373Y-23374174D01*
X17272563Y-23574174D02*
X17282087Y-23564650D01*
X17282087Y-23564650D02*
X17301134Y-23536079D01*
X17301134Y-23536079D02*
X17310658Y-23517031D01*
X17310658Y-23517031D02*
X17320182Y-23488460D01*
X17320182Y-23488460D02*
X17329706Y-23440841D01*
X17329706Y-23440841D02*
X17329706Y-23402746D01*
X17329706Y-23402746D02*
X17320182Y-23355127D01*
X17320182Y-23355127D02*
X17310658Y-23326555D01*
X17310658Y-23326555D02*
X17301134Y-23307508D01*
X17301134Y-23307508D02*
X17282087Y-23278936D01*
X17282087Y-23278936D02*
X17272563Y-23269412D01*
M02*
